# xmcd CD database file
#
# Track frame offsets:
#	150
#	1747
#	21677
#	39827
#	54912
#	68472
#	86562
#	108380
#	128080
#	146135
#	163705
#	182687
#	200762
#
# Disc length: 3000 seconds
#
# Revision: 4
# Processed by: cddbd v1.5.2PL0 Copyright (c) Steve Scherf et al.
# Submitted via: CDex 1.51
#
DISCID=a90bb60d
DTITLE=Montgomery Gentry - My Town
DYEAR=2002
DGENRE=Country
TTITLE0=My Town (Piano Intro)
TTITLE1=My Town
TTITLE2=Break My Heart Again
TTITLE3=Scarecrow
TTITLE4=Bad For Good
TTITLE5=Speed
TTITLE6=Hell Yeah
TTITLE7=Lonesome
TTITLE8=Why Do I Feel Like Running
TTITLE9=Free Fall
TTITLE10=Lie Before You Leave
TTITLE11=For The Money
TTITLE12=Good Clean Fun
EXTD=YEAR: 2002
EXTT0=
EXTT1=
EXTT2=
EXTT3=
EXTT4=
EXTT5=
EXTT6=
EXTT7=
EXTT8=
EXTT9=
EXTT10=
EXTT11=
EXTT12=
PLAYORDER=
